<mxfile host="app.diagrams.net" agent="Mozilla/5.0 (Macintosh; Intel Mac OS X 10_15_7) AppleWebKit/537.36 (KHTML, like Gecko) Chrome/132.0.0.0 Safari/537.36" version="26.0.6">
  <diagram name="Page-1" id="DJnInDWkQO5Ggb3iOhtF">
    <mxGraphModel dx="2608" dy="1784" grid="1" gridSize="10" guides="1" tooltips="1" connect="1" arrows="1" fold="1" page="1" pageScale="1" pageWidth="827" pageHeight="1169" math="0" shadow="0">
      <root>
        <mxCell id="0" />
        <mxCell id="1" parent="0" />
        <mxCell id="ZgXtayKzBXauwuxQMkB0-2" value="&lt;font style=&quot;&quot;&gt;&lt;span style=&quot;font-size: 22px;&quot;&gt;Domain&lt;/span&gt;&lt;br&gt;&lt;br&gt;&lt;br&gt;&lt;font style=&quot;font-size: 15px;&quot;&gt;Card&lt;/font&gt;&lt;br&gt;&lt;font style=&quot;font-size: 15px;&quot;&gt;Category&lt;br&gt;Quiz&lt;/font&gt;&lt;/font&gt;" style="ellipse;whiteSpace=wrap;html=1;aspect=fixed;fillColor=none;" vertex="1" parent="1">
          <mxGeometry x="-20" y="360" width="120" height="120" as="geometry" />
        </mxCell>
        <mxCell id="ZgXtayKzBXauwuxQMkB0-3" value="&lt;font style=&quot;&quot;&gt;&lt;br&gt;&lt;br&gt;&lt;br&gt;&lt;/font&gt;" style="ellipse;whiteSpace=wrap;html=1;aspect=fixed;fillColor=none;" vertex="1" parent="1">
          <mxGeometry x="-68" y="258" width="222" height="222" as="geometry" />
        </mxCell>
        <mxCell id="ZgXtayKzBXauwuxQMkB0-4" value="&lt;font style=&quot;line-height: 40%;&quot;&gt;&lt;br&gt;&lt;/font&gt;" style="ellipse;whiteSpace=wrap;html=1;aspect=fixed;fillColor=none;" vertex="1" parent="1">
          <mxGeometry x="-142.62" y="108.74999999999999" width="371.25" height="371.25" as="geometry" />
        </mxCell>
        <mxCell id="ZgXtayKzBXauwuxQMkB0-5" value="&lt;font style=&quot;font-size: 22px;&quot;&gt;Domain Service&lt;/font&gt;" style="text;html=1;align=center;verticalAlign=middle;resizable=0;points=[];autosize=1;strokeColor=none;fillColor=none;" vertex="1" parent="1">
          <mxGeometry x="-49.99" y="280" width="180" height="40" as="geometry" />
        </mxCell>
        <mxCell id="ZgXtayKzBXauwuxQMkB0-6" value="&lt;font style=&quot;font-size: 15px;&quot;&gt;Card service&lt;br&gt;&lt;br&gt;&lt;/font&gt;" style="text;html=1;align=center;verticalAlign=middle;resizable=0;points=[];autosize=1;strokeColor=none;fillColor=none;" vertex="1" parent="1">
          <mxGeometry x="-14.99" y="302.5" width="110" height="50" as="geometry" />
        </mxCell>
        <mxCell id="ZgXtayKzBXauwuxQMkB0-7" value="&lt;font style=&quot;font-size: 25px;&quot;&gt;Application Service&lt;/font&gt;" style="text;html=1;align=center;verticalAlign=middle;resizable=0;points=[];autosize=1;strokeColor=none;fillColor=none;" vertex="1" parent="1">
          <mxGeometry x="-68" y="150" width="240" height="40" as="geometry" />
        </mxCell>
        <mxCell id="ZgXtayKzBXauwuxQMkB0-8" value="&lt;font style=&quot;font-size: 15px;&quot;&gt;Leitner Service&lt;br&gt;SchedulingServicex&lt;/font&gt;" style="text;html=1;align=center;verticalAlign=middle;resizable=0;points=[];autosize=1;strokeColor=none;fillColor=none;" vertex="1" parent="1">
          <mxGeometry x="-39.99" y="190" width="160" height="50" as="geometry" />
        </mxCell>
        <mxCell id="ZgXtayKzBXauwuxQMkB0-14" style="edgeStyle=orthogonalEdgeStyle;rounded=0;orthogonalLoop=1;jettySize=auto;html=1;entryX=1;entryY=0.5;entryDx=0;entryDy=0;" edge="1" parent="1" source="ZgXtayKzBXauwuxQMkB0-9" target="ZgXtayKzBXauwuxQMkB0-4">
          <mxGeometry relative="1" as="geometry" />
        </mxCell>
        <mxCell id="ZgXtayKzBXauwuxQMkB0-15" value="Protocol spécifique à la BDD" style="edgeLabel;html=1;align=center;verticalAlign=middle;resizable=0;points=[];" vertex="1" connectable="0" parent="ZgXtayKzBXauwuxQMkB0-14">
          <mxGeometry x="0.0171" y="2" relative="1" as="geometry">
            <mxPoint as="offset" />
          </mxGeometry>
        </mxCell>
        <mxCell id="ZgXtayKzBXauwuxQMkB0-9" value="&lt;font style=&quot;line-height: 40%;&quot;&gt;Bdd&lt;/font&gt;" style="ellipse;whiteSpace=wrap;html=1;aspect=fixed;fillColor=none;" vertex="1" parent="1">
          <mxGeometry x="500" y="233.12" width="122.5" height="122.5" as="geometry" />
        </mxCell>
        <mxCell id="ZgXtayKzBXauwuxQMkB0-11" value="&lt;font style=&quot;line-height: 40%;&quot;&gt;Interface web&lt;/font&gt;" style="ellipse;whiteSpace=wrap;html=1;aspect=fixed;fillColor=none;" vertex="1" parent="1">
          <mxGeometry x="301" y="50" width="112.5" height="112.5" as="geometry" />
        </mxCell>
        <mxCell id="ZgXtayKzBXauwuxQMkB0-12" style="edgeStyle=orthogonalEdgeStyle;rounded=0;orthogonalLoop=1;jettySize=auto;html=1;entryX=0.941;entryY=0.285;entryDx=0;entryDy=0;entryPerimeter=0;" edge="1" parent="1" source="ZgXtayKzBXauwuxQMkB0-11" target="ZgXtayKzBXauwuxQMkB0-4">
          <mxGeometry relative="1" as="geometry" />
        </mxCell>
        <mxCell id="ZgXtayKzBXauwuxQMkB0-13" value="HTTP" style="edgeLabel;html=1;align=center;verticalAlign=middle;resizable=0;points=[];" vertex="1" connectable="0" parent="ZgXtayKzBXauwuxQMkB0-12">
          <mxGeometry x="0.1612" y="-1" relative="1" as="geometry">
            <mxPoint y="-1" as="offset" />
          </mxGeometry>
        </mxCell>
        <mxCell id="ZgXtayKzBXauwuxQMkB0-16" value="&lt;font style=&quot;font-size: 40px;&quot;&gt;Archi hexagonale&lt;/font&gt;" style="text;html=1;align=center;verticalAlign=middle;resizable=0;points=[];autosize=1;strokeColor=none;fillColor=none;" vertex="1" parent="1">
          <mxGeometry x="-145" y="-47" width="330" height="60" as="geometry" />
        </mxCell>
        <mxCell id="ZgXtayKzBXauwuxQMkB0-17" value="&lt;font style=&quot;font-size: 40px;&quot;&gt;DDD&lt;/font&gt;" style="text;html=1;align=center;verticalAlign=middle;resizable=0;points=[];autosize=1;strokeColor=none;fillColor=none;" vertex="1" parent="1">
          <mxGeometry x="-700" y="-37" width="110" height="60" as="geometry" />
        </mxCell>
        <mxCell id="ZgXtayKzBXauwuxQMkB0-22" style="edgeStyle=orthogonalEdgeStyle;rounded=0;orthogonalLoop=1;jettySize=auto;html=1;" edge="1" parent="1" source="ZgXtayKzBXauwuxQMkB0-18" target="ZgXtayKzBXauwuxQMkB0-19">
          <mxGeometry relative="1" as="geometry" />
        </mxCell>
        <mxCell id="ZgXtayKzBXauwuxQMkB0-23" value="Créé" style="edgeLabel;html=1;align=center;verticalAlign=middle;resizable=0;points=[];" vertex="1" connectable="0" parent="ZgXtayKzBXauwuxQMkB0-22">
          <mxGeometry x="-0.255" y="-1" relative="1" as="geometry">
            <mxPoint as="offset" />
          </mxGeometry>
        </mxCell>
        <mxCell id="ZgXtayKzBXauwuxQMkB0-18" value="User" style="ellipse;whiteSpace=wrap;html=1;" vertex="1" parent="1">
          <mxGeometry x="-827" y="275.62" width="80" height="80" as="geometry" />
        </mxCell>
        <mxCell id="ZgXtayKzBXauwuxQMkB0-24" style="edgeStyle=orthogonalEdgeStyle;rounded=0;orthogonalLoop=1;jettySize=auto;html=1;entryX=0.5;entryY=1;entryDx=0;entryDy=0;" edge="1" parent="1" source="ZgXtayKzBXauwuxQMkB0-19" target="ZgXtayKzBXauwuxQMkB0-20">
          <mxGeometry relative="1" as="geometry" />
        </mxCell>
        <mxCell id="ZgXtayKzBXauwuxQMkB0-25" value="Possède" style="edgeLabel;html=1;align=center;verticalAlign=middle;resizable=0;points=[];" vertex="1" connectable="0" parent="ZgXtayKzBXauwuxQMkB0-24">
          <mxGeometry x="-0.2667" y="-4" relative="1" as="geometry">
            <mxPoint as="offset" />
          </mxGeometry>
        </mxCell>
        <mxCell id="ZgXtayKzBXauwuxQMkB0-19" value="Card" style="ellipse;whiteSpace=wrap;html=1;" vertex="1" parent="1">
          <mxGeometry x="-600" y="240" width="80" height="80" as="geometry" />
        </mxCell>
        <mxCell id="ZgXtayKzBXauwuxQMkB0-20" value="Category" style="ellipse;whiteSpace=wrap;html=1;" vertex="1" parent="1">
          <mxGeometry x="-600" y="50" width="80" height="80" as="geometry" />
        </mxCell>
        <mxCell id="ZgXtayKzBXauwuxQMkB0-21" value="Quiz" style="ellipse;whiteSpace=wrap;html=1;" vertex="1" parent="1">
          <mxGeometry x="-870" y="60" width="80" height="80" as="geometry" />
        </mxCell>
      </root>
    </mxGraphModel>
  </diagram>
</mxfile>
